<svg xmlns="http://www.w3.org/2000/svg" xmlns:xlink="http://www.w3.org/1999/xlink" width="500" zoomAndPan="magnify" viewBox="0 0 375 374.999991" height="500" preserveAspectRatio="xMidYMid meet" version="1.0"><defs><g/><clipPath id="442742e82b"><path d="M 187.5 0 C 83.945312 0 0 83.945312 0 187.5 C 0 291.054688 83.945312 375 187.5 375 C 291.054688 375 375 291.054688 375 187.5 C 375 83.945312 291.054688 0 187.5 0 Z M 187.5 0 " clip-rule="nonzero"/></clipPath></defs><g clip-path="url(#442742e82b)"><rect x="-37.5" width="450" fill="#1c3054" y="-37.499999" height="449.999989" fill-opacity="1"/></g><g fill="#ffffff" fill-opacity="0.4"><g transform="translate(85.290352, 245.620589)"><g><path d="M 120.640625 -130.265625 L 116.109375 -108.703125 L 55.328125 -108.703125 L 48.828125 -78.234375 L 101.9375 -78.234375 L 97.484375 -57.203125 L 44.375 -57.203125 L 36.796875 -21.5625 L 99 -21.5625 L 94.453125 0 L 6.5 0 L 34.125 -130.265625 Z M 120.640625 -130.265625 "/></g></g></g><g fill="#ffffff" fill-opacity="1"><g transform="translate(77.225604, 237.555841)"><g><path d="M 120.640625 -130.265625 L 116.109375 -108.703125 L 55.328125 -108.703125 L 48.828125 -78.234375 L 101.9375 -78.234375 L 97.484375 -57.203125 L 44.375 -57.203125 L 36.796875 -21.5625 L 99 -21.5625 L 94.453125 0 L 6.5 0 L 34.125 -130.265625 Z M 120.640625 -130.265625 "/></g></g></g><g fill="#ffffff" fill-opacity="0.4"><g transform="translate(183.871474, 266.711018)"><g><path d="M 90.4375 0 L -5.078125 0 L -0.265625 -22.703125 L 80.109375 -106.71875 L 79.9375 -108.59375 L 20.5625 -108.59375 L 25.09375 -130.140625 L 117.40625 -130.140625 L 112.59375 -107.4375 L 32.21875 -23.40625 L 32.40625 -21.546875 L 94.96875 -21.546875 Z M 90.4375 0 "/></g></g></g><g fill="#ffffff" fill-opacity="1"><g transform="translate(175.814789, 258.654329)"><g><path d="M 90.4375 0 L -5.078125 0 L -0.265625 -22.703125 L 80.109375 -106.71875 L 79.9375 -108.59375 L 20.5625 -108.59375 L 25.09375 -130.140625 L 117.40625 -130.140625 L 112.59375 -107.4375 L 32.21875 -23.40625 L 32.40625 -21.546875 L 94.96875 -21.546875 Z M 90.4375 0 "/></g></g></g></svg>